<?xml version="1.0" standalone="no"?><!DOCTYPE svg PUBLIC "-//W3C//DTD SVG 1.1//EN" "http://www.w3.org/Graphics/SVG/1.1/DTD/svg11.dtd"><svg t="1634541656623" class="icon" viewBox="0 0 1024 1024" version="1.1" xmlns="http://www.w3.org/2000/svg" p-id="2410" xmlns:xlink="http://www.w3.org/1999/xlink" width="200" height="200"><defs><style type="text/css"></style></defs><path d="M763.485 114C830.044 114 884 170.65 884 240.532v542.936C884 853.35 830.044 910 763.485 910h-503.97C192.956 910 139 853.35 139 783.468V240.532C139 170.65 192.956 114 259.515 114h503.97zM481.592 666.139H345.96c-16.517 0-29.908 13.39-29.908 29.907 0 16.518 13.39 29.908 29.908 29.908h135.632c16.518 0 29.908-13.39 29.908-29.908 0-16.517-13.39-29.907-29.908-29.907zM677.04 479.792H345.96c-16.517 0-29.908 13.39-29.908 29.907 0 16.518 13.39 29.908 29.908 29.908h331.08c16.517 0 29.908-13.39 29.908-29.908 0-16.517-13.39-29.907-29.908-29.907zM399.98 250.884l-22.3 45.21-49.866 7.25 36.083 35.19-8.518 49.69 44.6-23.461 44.602 23.46-8.518-49.69 36.083-35.19-49.866-7.25-22.3-45.209z m277.06 47.162H541.408c-16.518 0-29.908 13.39-29.908 29.908 0 16.517 13.39 29.907 29.908 29.907H677.04c16.517 0 29.908-13.39 29.908-29.907 0-16.518-13.39-29.908-29.908-29.908z"></path></svg>
