<?xml version="1.0" standalone="no"?><!DOCTYPE svg PUBLIC "-//W3C//DTD SVG 1.1//EN" "http://www.w3.org/Graphics/SVG/1.1/DTD/svg11.dtd"><svg t="1594711475836" class="icon" viewBox="0 0 1024 1024" version="1.1" xmlns="http://www.w3.org/2000/svg" p-id="9656" xmlns:xlink="http://www.w3.org/1999/xlink" width="200" height="200"><defs><style type="text/css"></style></defs><path d="M841.045333 68.266667h-17.066666a12.288 12.288 0 0 0-12.970667 12.970666v110.592a12.288 12.288 0 0 1-12.970667 12.970667H209.578667a12.288 12.288 0 0 1-12.970667-12.970667V81.237333A12.288 12.288 0 0 0 183.637333 68.266667 150.186667 150.186667 0 0 0 34.133333 217.770667v656.725333A150.186667 150.186667 0 0 0 183.637333 1024h657.408A149.504 149.504 0 0 0 989.866667 874.496V217.770667A149.504 149.504 0 0 0 841.045333 68.266667z m-30.037333 614.4h-614.4V614.4h614.4z m0-204.8h-614.4V409.6h614.4z" fill="#BFCBD9" p-id="9657"></path><path d="M264.874667 0h477.866666v136.533333h-477.866666z" fill="#BFCBD9" p-id="9658"></path></svg>