<?xml version="1.0" standalone="no"?><!DOCTYPE svg PUBLIC "-//W3C//DTD SVG 1.1//EN" "http://www.w3.org/Graphics/SVG/1.1/DTD/svg11.dtd"><svg t="1632552727328" class="icon" viewBox="0 0 1024 1024" version="1.1" xmlns="http://www.w3.org/2000/svg" p-id="2263" xmlns:xlink="http://www.w3.org/1999/xlink" width="200" height="200"><defs><style type="text/css"></style></defs><path d="M445.12 13.312c52.16 0 94.016 42.112 98.496 94.912l0.384 9.472v28.032h355.2a96 96 0 0 1 95.552 86.784l0.448 9.216v682.24a96 96 0 0 1-96 96H124.8a96 96 0 0 1-96-96V117.76C28.8 63.744 67.776 18.56 118.592 13.696l9.088-0.384h317.44z m454.08 196.48H124.8a32 32 0 0 0-32 32v682.24a32 32 0 0 0 32 32h774.4a32 32 0 0 0 32-32V241.728a32 32 0 0 0-32-32zM480 338.752a64 64 0 0 1 64 0l163.392 94.272a64 64 0 0 1 32 55.424v188.672a64 64 0 0 1-32 55.424L544 826.944a64 64 0 0 1-64 0l-163.392-94.336a64 64 0 0 1-32-55.424V488.512a64 64 0 0 1 32-55.424z m32 55.424L348.608 488.512v188.672L512 771.52l163.392-94.336V488.512L512 394.24z m0 118.208a68.736 68.736 0 1 1 0 137.408 68.736 68.736 0 0 1 0-137.408z m-66.88-435.2h-317.44c-16.832 0-31.616 14.272-34.432 33.728l-0.448 6.72v33.536c10.048-3.584 20.8-5.504 32-5.504H480v-28.032c0-20.608-13.12-36.864-29.376-39.872l-5.504-0.512z"></path></svg>
