<?xml version="1.0" standalone="no"?><!DOCTYPE svg PUBLIC "-//W3C//DTD SVG 1.1//EN" "http://www.w3.org/Graphics/SVG/1.1/DTD/svg11.dtd"><svg t="1602728108470" class="icon" viewBox="0 0 1024 1024" version="1.1" xmlns="http://www.w3.org/2000/svg" p-id="4117" xmlns:xlink="http://www.w3.org/1999/xlink" width="32" height="32"><defs><style type="text/css"></style></defs><path d="M515.6864 1024c-13.9264 0-27.8528-3.584-40.2432-10.752L101.6832 797.4912c-24.7808-14.336-40.2432-40.96-40.2432-69.632V296.1408c0-28.672 15.36-55.296 40.2432-69.632l373.76-215.8592c24.7808-14.336 55.6032-14.336 80.384 0l373.76 215.8592c24.7808 14.336 40.2432 40.96 40.2432 69.632v431.616c0 28.672-15.36 55.296-40.2432 69.632l-373.76 215.8592c-12.3904 7.168-26.3168 10.752-40.1408 10.752z m0-956.1088c-2.1504 0-4.3008 0.512-6.2464 1.6384l-373.76 215.8592c-3.8912 2.2528-6.2464 6.3488-6.2464 10.8544v431.616c0 4.5056 2.3552 8.6016 6.2464 10.8544l373.76 215.8592c3.8912 2.2528 8.6016 2.2528 12.4928 0l373.76-215.8592c3.8912-2.2528 6.2464-6.3488 6.2464-10.8544V296.1408c0-4.4032-2.3552-8.6016-6.2464-10.8544L521.9328 69.5296c-1.9456-1.1264-4.096-1.6384-6.2464-1.6384z"></path><path d="M515.6864 686.3872c-96.1536 0-174.3872-78.2336-174.3872-174.3872s78.2336-174.3872 174.3872-174.3872S690.0736 415.8464 690.0736 512c-0.1024 96.1536-78.2336 174.3872-174.3872 174.3872z m0-280.8832c-58.6752 0-106.496 47.7184-106.496 106.496s47.7184 106.496 106.496 106.496 106.496-47.7184 106.496-106.496-47.8208-106.496-106.496-106.496z"></path></svg>
